HIERARCHY
ROOT Hips
{
	OFFSET 0.00000 0.00000 0.00000
	CHANNELS 6 Xposition Yposition Zposition Zrotation Yrotation Xrotation 
	JOINT LHipJoint
	{
		OFFSET 0 0 0
		CHANNELS 3 Zrotation Yrotation Xrotation
		JOINT LeftUpLeg
		{
			OFFSET 1.57338 -1.94743 0.52196
			CHANNELS 3 Zrotation Yrotation Xrotation
			JOINT LeftLeg
			{
				OFFSET 2.60333 -7.15259 0.00000
				CHANNELS 3 Zrotation Yrotation Xrotation
				JOINT LeftFoot
				{
					OFFSET 2.77855 -7.63400 0.00000
					CHANNELS 3 Zrotation Yrotation Xrotation
					JOINT LeftToeBase
					{
						OFFSET 0.19847 -0.54529 2.28466
						CHANNELS 3 Zrotation Yrotation Xrotation
						End Site
						{
							OFFSET 0.00000 -0.00000 1.17993
						}
					}
				}
			}
		}
	}
	JOINT RHipJoint
	{
		OFFSET 0 0 0
		CHANNELS 3 Zrotation Yrotation Xrotation
		JOINT RightUpLeg
		{
			OFFSET -1.61527 -1.94743 0.52196
			CHANNELS 3 Zrotation Yrotation Xrotation
			JOINT RightLeg
			{
				OFFSET -2.53829 -6.97390 0.00000
				CHANNELS 3 Zrotation Yrotation Xrotation
				JOINT RightFoot
				{
					OFFSET -2.80762 -7.71387 0.00000
					CHANNELS 3 Zrotation Yrotation Xrotation
					JOINT RightToeBase
					{
						OFFSET -0.30536 -0.83898 2.28801
						CHANNELS 3 Zrotation Yrotation Xrotation
						End Site
						{
							OFFSET -0.00000 -0.00000 1.21323
						}
					}
				}
			}
		}
	}
	JOINT LowerBack
	{
		OFFSET 0 0 0
		CHANNELS 3 Zrotation Yrotation Xrotation
		JOINT Spine
		{
			OFFSET -0.04381 1.99497 -0.19778
			CHANNELS 3 Zrotation Yrotation Xrotation
			JOINT Spine1
			{
				OFFSET -0.01959 2.01295 -0.04372
				CHANNELS 3 Zrotation Yrotation Xrotation
				JOINT Neck
				{
					OFFSET 0 0 0
					CHANNELS 3 Zrotation Yrotation Xrotation
					JOINT Neck1
					{
						OFFSET -0.05459 1.76913 0.09708
						CHANNELS 3 Zrotation Yrotation Xrotation
						JOINT Head
						{
							OFFSET 0.09461 1.77368 -0.11172
							CHANNELS 3 Zrotation Yrotation Xrotation
							End Site
							{
								OFFSET 0.03812 1.78157 -0.04834
							}
						}
					}
				}
				JOINT LeftShoulder
				{
					OFFSET 0 0 0
					CHANNELS 3 Zrotation Yrotation Xrotation
					JOINT LeftArm
					{
						OFFSET 3.50922 1.24034 -0.28866
						CHANNELS 3 Zrotation Yrotation Xrotation
						JOINT LeftForeArm
						{
							OFFSET 5.40188 -0.00000 0.00000
							CHANNELS 3 Zrotation Yrotation Xrotation
							JOINT LeftHand
							{
								OFFSET 3.68559 -0.00000 0.00000
								CHANNELS 3 Zrotation Yrotation Xrotation
								JOINT LeftFingerBase
								{
									OFFSET 0 0 0
									CHANNELS 3 Zrotation Yrotation Xrotation
									JOINT LeftHandIndex1
									{
										OFFSET 0.61753 -0.00000 0.00000
										CHANNELS 3 Zrotation Yrotation Xrotation
										End Site
										{
											OFFSET 0.49787 -0.00000 0.00000
										}
									}
								}
								JOINT LThumb
								{
									OFFSET 0 0 0
									CHANNELS 3 Zrotation Yrotation Xrotation
									End Site
									{
										OFFSET 0.50547 -0.00000 0.50547
									}
								}
							}
						}
					}
				}
				JOINT RightShoulder
				{
					OFFSET 0 0 0
					CHANNELS 3 Zrotation Yrotation Xrotation
					JOINT RightArm
					{
						OFFSET -2.95373 1.39649 -0.27346
						CHANNELS 3 Zrotation Yrotation Xrotation
						JOINT RightForeArm
						{
							OFFSET -6.10670 -0.00000 -0.00000
							CHANNELS 3 Zrotation Yrotation Xrotation
							JOINT RightHand
							{
								OFFSET -3.63052 -0.00000 0.00000
								CHANNELS 3 Zrotation Yrotation Xrotation
								JOINT RightFingerBase
								{
									OFFSET 0 0 0
									CHANNELS 3 Zrotation Yrotation Xrotation
									JOINT RightHandIndex1
									{
										OFFSET -0.58385 -0.00000 0.00000
										CHANNELS 3 Zrotation Yrotation Xrotation
										End Site
										{
											OFFSET -0.47071 -0.00000 0.00000
										}
									}
								}
								JOINT RThumb
								{
									OFFSET 0 0 0
									CHANNELS 3 Zrotation Yrotation Xrotation
									End Site
									{
										OFFSET -0.47790 -0.00000 0.47790
									}
								}
							}
						}
					}
				}
			}
		}
	}
}
MOTION
Frames: 6
Frame Time: .0083333
0.2844 17.754 5.2026 0 0 0 0 0 0 -21 0 0 0 0 0 0 0 0 0 0 0 0 0 0 21 0 0 0 0 0 0 0 0 0 0 0 0 0 0 0 0 0 0 0 0 0 0 -16 0 0 21 0 0 11 0 0 0 -8 0 0 0 0 0 0 0 0 0 0 0 0 0 0 0 0 0 0 0 0 8 0 0 0 0 0 0 0 0 0 0 0 0 0 0 0 0 0
0.2844 17.7540 5.2026 15.6688 -45.5230 -1.2121 0.0000 0.0000 0.0000 -28.8928 11.1748 -25.6222 4.6727 13.0055 39.3891 1.7272 9.6104 -29.8887 0.2883 -3.4531 -9.5428 0.0000 0.0000 0.0000 -9.8125 19.1060 -41.0019 -5.6576 -14.0881 43.5916 -0.2656 -6.3550 -14.0999 -0.0005 -0.1433 0.3938 0.5467 -2.9086 22.1045 1.0147 -4.0755 11.7808 1.6196 -2.2216 0.5854 -2.5071 -0.1200 -14.6203 6.1190 0.0917 -7.4333 2.3983 0.0739 0.1082 -0.0000 0.0000 0.0000 -101.6309 -65.1728 90.3238 48.0787 -52.1906 -24.6479 -0.0000 -0.0000 1.8700 50.5854 18.6471 21.2587 -7.1250 0.0000 -0.0000 25.3844 56.1050 7.2445 -0.0000 0.0000 0.0000 69.1904 46.1059 36.9329 -98.7300 59.7100 -67.5531 0.0000 -0.0000 -20.4105 -50.6991 -9.8499 11.8047 7.1250 -0.0000 -0.0000 -21.9337 -44.1338 -0.4939
0.2934 17.7664 5.2000 15.4865 -45.0827 -1.3506 0.0000 0.0000 0.0000 -28.7408 11.1781 -25.2197 4.6304 12.9551 39.2005 1.7075 9.5028 -29.6864 0.2973 -3.5063 -9.6915 0.0000 0.0000 0.0000 -9.6387 19.0846 -40.3465 -5.6093 -14.0387 43.3927 -0.2536 -6.6953 -14.2527 -0.0003 -0.1051 0.2889 0.3679 -2.8071 21.8721 1.0000 -3.9686 11.6641 1.6733 -2.1712 0.5777 -2.4512 -0.1055 -14.6119 6.1063 0.1049 -7.4272 2.3844 0.0803 0.1079 0.0000 -0.0000 0.0000 -101.7502 -64.6869 90.2395 48.3208 -52.2954 -24.8393 -0.0000 -0.0000 0.8437 48.4732 19.1918 20.3657 -7.1250 0.0000 -0.0000 22.8269 56.1838 6.5002 0.0000 -0.0000 0.0000 69.5333 45.8661 37.1809 -98.0767 59.7521 -66.9888 0.0000 -0.0000 -17.1690 -51.1710 -11.1878 13.5536 7.1250 -0.0000 -0.0000 -22.9145 -46.1303 0.6745
0.3083 17.7775 5.2019 15.2947 -44.6355 -1.5490 0.0000 0.0000 0.0000 -28.5946 11.1504 -24.7536 4.6036 12.9230 39.0809 1.7027 9.3655 -29.5600 0.2927 -3.4787 -9.6146 0.0000 0.0000 0.0000 -9.4318 18.9653 -39.6313 -5.5491 -13.9767 43.1440 -0.2369 -7.0050 -14.3150 -0.0001 -0.0547 0.1502 0.3151 -2.7595 21.7253 0.9731 -3.9079 11.5539 1.6578 -2.1379 0.5277 -2.3964 -0.1247 -14.5182 5.9849 0.0736 -7.4892 2.3312 0.0610 0.0727 0.0000 -0.0000 0.0000 -101.7632 -64.2378 89.9711 48.5042 -52.3741 -24.9845 -0.0000 0.0000 -0.1835 48.8168 19.4034 20.7925 -7.1250 0.0000 -0.0000 23.3554 56.5539 6.8760 0.0000 -0.0000 0.0000 69.8645 45.7212 37.5072 -97.1143 59.8079 -66.1572 0.0000 -0.0000 -14.2377 -51.8951 -12.0167 14.8678 7.1250 -0.0000 -0.0000 -24.0166 -47.4694 1.5489
0.3249 17.7881 5.2049 14.9411 -44.1730 -1.6374 0.0000 0.0000 0.0000 -28.3180 11.0711 -24.2904 4.5790 12.8934 38.9706 1.6788 9.3041 -29.3608 0.2946 -3.4903 -9.6469 0.0000 0.0000 0.0000 -9.1103 18.8783 -38.8780 -5.4896 -13.9148 42.8972 -0.2332 -7.2919 -14.5546 -0.0001 -0.0626 0.1720 0.3556 -2.7483 21.6403 0.9813 -3.8742 11.4122 1.6376 -2.1143 0.4106 -2.2704 -0.0989 -14.4349 5.8080 0.0888 -7.4612 2.2491 0.0648 0.0659 -0.0000 0.0000 0.0000 -101.6368 -63.7441 89.5215 48.7861 -52.4940 -25.2079 -0.0000 0.0000 -1.1427 50.7778 19.3506 22.0947 -7.1250 0.0000 -0.0000 25.9738 57.0740 8.0525 -0.0000 0.0000 0.0000 70.3110 45.5760 37.9886 -96.0281 59.8622 -65.2180 0.0000 -0.0000 -11.6862 -52.7328 -12.3455 15.6951 7.1250 -0.0000 -0.0000 -25.0728 -48.1419 2.0653
0.3361 17.8012 5.2053 14.4463 -43.6054 -1.4675 0.0000 0.0000 0.0000 -27.9164 10.7965 -23.9418 4.5571 12.8670 38.8726 1.6611 9.1956 -29.1685 0.2769 -3.3849 -9.3522 0.0000 0.0000 0.0000 -8.7225 18.7835 -38.2189 -5.4273 -13.8494 42.6376 -0.2317 -7.6451 -14.9032 -0.0010 -0.2005 0.5509 0.3944 -2.7203 21.3833 1.0684 -3.8165 11.2471 1.6885 -2.0803 0.3583 -2.2230 -0.1448 -14.4393 5.7292 0.0207 -7.4137 2.2112 0.0310 0.0843 0.0000 0.0000 0.0000 -101.7989 -63.1830 89.3549 49.1557 -52.6492 -25.5014 -0.0000 0.0000 -1.8771 50.9408 19.4821 22.3419 -7.1250 0.0000 -0.0000 26.2626 57.2937 8.2931 0.0000 0.0000 0.0000 70.6179 45.3565 38.3059 -95.2021 59.8975 -64.5036 0.0000 -0.0000 -9.4980 -53.3547 -12.5644 16.3005 7.1250 -0.0000 -0.0000 -25.8676 -48.6142 2.4582
